<svg xmlns:inkscape="http://www.inkscape.org/namespaces/inkscape" xmlns:sodipodi="http://sodipodi.sourceforge.net/DTD/sodipodi-0.dtd" xmlns="http://www.w3.org/2000/svg" xmlns:svg="http://www.w3.org/2000/svg" width="500" viewBox="0 0 375 150" height="200" preserveAspectRatio="xMidYMid" id="svg104" sodipodi:docname="9.svg" inkscape:version="1.3.2 (091e20ef0f, 2023-11-25, custom)" inkscape:export-filename="9.png" inkscape:export-xdpi="300" inkscape:export-ydpi="300"><defs id="defs21"><g id="g1"></g><clipPath id="c2207b3d02"><path d="m 104.16797,114.35156 h 4.36719 v 4.36328 h -4.36719 z m 0,0" clip-rule="nonzero" id="path1"></path></clipPath><clipPath id="2353263d12"><path d="m 106.35156,114.35156 c -1.20312,0 -2.18359,0.97657 -2.18359,2.1836 0,1.20312 0.98047,2.17968 2.18359,2.17968 1.20703,0 2.1836,-0.97656 2.1836,-2.17968 0,-1.20703 -0.97657,-2.1836 -2.1836,-2.1836 z m 0,0" clip-rule="nonzero" id="path2"></path></clipPath><clipPath id="59949fe525"><path d="M 80,102.33203 H 98 V 119 H 80 Z m 0,0" clip-rule="nonzero" id="path3"></path></clipPath><clipPath id="33ba226676"><path d="M 61,102.33203 H 79 V 119 H 61 Z m 0,0" clip-rule="nonzero" id="path4"></path></clipPath><clipPath id="01695772a0"><path d="M 37.84375,126 H 53 v 19 H 37.84375 Z m 0,0" clip-rule="nonzero" id="path5"></path></clipPath><clipPath id="042242110a"><path d="M 37.84375,150 H 53 v 19 H 37.84375 Z m 0,0" clip-rule="nonzero" id="path6"></path></clipPath><clipPath id="d0b52cf48e"><path d="m 61,176 h 18 v 16.78125 H 61 Z m 0,0" clip-rule="nonzero" id="path7"></path></clipPath><clipPath id="a6f79b2eda"><path d="m 80,176 h 18 v 16.78125 H 80 Z m 0,0" clip-rule="nonzero" id="path8"></path></clipPath><clipPath id="b2a67992cd"><path d="m 106,150 h 15.40234 v 19 H 106 Z m 0,0" clip-rule="nonzero" id="path9"></path></clipPath><clipPath id="683ae996b1"><path d="m 106,126 h 15.40234 v 19 H 106 Z m 0,0" clip-rule="nonzero" id="path10"></path></clipPath><clipPath id="41f2b8a5d7"><path d="m 109,102.33203 h 12.40234 V 116 H 109 Z m 0,0" clip-rule="nonzero" id="path11"></path></clipPath><clipPath id="4d337690ed"><path d="m 37,145 h 3 v 5 h -3 z m 0,0" clip-rule="nonzero" id="path12"></path></clipPath><clipPath id="acff5831cd"><path d="m 39.328125,145.82422 0.101563,3.58203 -1.929688,0.0547 -0.101562,-3.58203 z m 0,0" clip-rule="nonzero" id="path13"></path></clipPath><clipPath id="b8b22b874e"><path d="m 39.328125,145.82422 0.101563,3.58203 -1.929688,0.0547 -0.101562,-3.58203 z m 0,0" clip-rule="nonzero" id="path14"></path></clipPath><clipPath id="bd960625d8"><path d="m 76.703125,171.04297 h 5.808594 v 5.80859 h -5.808594 z m 0,0" clip-rule="nonzero" id="path15"></path></clipPath><clipPath id="ec7e253fbc"><path d="m 79.605469,171.04297 c -1.601563,0 -2.902344,1.30078 -2.902344,2.90234 0,1.60547 1.300781,2.90625 2.902344,2.90625 1.605469,0 2.90625,-1.30078 2.90625,-2.90625 0,-1.60156 -1.300781,-2.90234 -2.90625,-2.90234 z m 0,0" clip-rule="nonzero" id="path16"></path></clipPath><clipPath id="8519918df6"><path d="m 53.710938,157.74219 h 5.972656 v 5.97265 h -5.972656 z m 0,0" clip-rule="nonzero" id="path17"></path></clipPath><clipPath id="42ec73a2d9"><path d="m 56.699219,157.74219 c -1.652344,0 -2.988281,1.33593 -2.988281,2.98437 0,1.65235 1.335937,2.98828 2.988281,2.98828 1.648437,0 2.984375,-1.33593 2.984375,-2.98828 0,-1.64844 -1.335938,-2.98437 -2.984375,-2.98437 z m 0,0" clip-rule="nonzero" id="path18"></path></clipPath><clipPath id="72dd021a82"><path d="m 98,181 h 5 v 5 h -5 z m 0,0" clip-rule="nonzero" id="path19"></path></clipPath><clipPath id="960da92e1e"><path d="m 97.742188,183.23828 3.472652,-2.25 1.19922,1.85156 -3.472654,2.25 z m 0,0" clip-rule="nonzero" id="path20"></path></clipPath><clipPath id="c2f1fe8fb8"><path d="m 97.742188,183.23828 3.472652,-2.25 1.19922,1.85156 -3.472654,2.25 z m 0,0" clip-rule="nonzero" id="path21"></path></clipPath></defs><g clip-path="url(#c2207b3d02)" id="g23" transform="translate(0.51680323,-72.320722)"><g clip-path="url(#2353263d12)" id="g22"><path fill="#ffffff" d="m 104.16797,114.35156 h 4.36719 v 4.36328 h -4.36719 z m 0,0" fill-opacity="1" fill-rule="nonzero" id="path22"></path></g></g><path fill="#1190cf" d="m 79.497272,70.249588 v -17.17968 c -0.511719,-0.0781 -1.015625,-0.25 -1.488281,-0.51954 -0.511719,-0.29687 -0.9375,-0.68359 -1.273438,-1.1289 -2.59375,1.41406 -5.203125,2.8789 -7.828125,4.39062 -2.621094,1.51172 -5.195313,3.03906 -7.71875,4.57422 0.425781,1 0.464844,2.15234 0.05078,3.21094 l 14.898438,8.58984 c 0.832031,-1.09765 2.054687,-1.76953 3.359376,-1.9375 z m 0,0" fill-opacity="1" fill-rule="evenodd" id="path23"></path><path fill="#1190cf" d="m 80.786334,53.069908 v 17.17968 c 0.640625,0.0781 1.277344,0.28906 1.871094,0.63281 0.597656,0.33985 1.097656,0.78907 1.488281,1.30469 l 14.898438,-8.58984 c -0.394532,-1.01172 -0.402344,-2.16406 0.04687,-3.21094 -2.523438,-1.53516 -5.097657,-3.0625 -7.71875,-4.57422 -2.625,-1.51172 -5.234375,-2.97656 -7.828125,-4.38672 -0.683594,0.91016 -1.6875,1.48047 -2.757813,1.64454 z m 0,0" fill-opacity="1" fill-rule="evenodd" id="path24"></path><path fill="#077aba" d="m 75.493365,73.296468 -14.898437,-8.58594 c -0.710937,0.88672 -1.730469,1.42969 -2.8125,1.5625 -0.07031,2.94922 -0.105469,5.94141 -0.105469,8.96484 0,3.02344 0.03516,6.01172 0.105469,8.96094 0.554687,0.0664 1.105469,0.24219 1.617187,0.53906 0.472657,0.27344 0.875,0.6211 1.195313,1.02344 l 14.898437,-8.58594 c -0.503906,-1.21093 -0.535156,-2.60547 0,-3.8789 z m 0,0" fill-opacity="1" fill-rule="evenodd" id="path25"></path><path fill="#085c9c" d="m 76.137897,78.288648 -14.898438,8.58985 c 0.390625,1.00781 0.398438,2.16015 -0.04687,3.20703 2.519531,1.53906 5.09375,3.0625 7.71875,4.57422 2.621094,1.51172 5.234375,2.97656 7.824219,4.39062 0.6875,-0.91015 1.6875,-1.48047 2.761719,-1.64453 v -17.17969 c -0.644531,-0.082 -1.277344,-0.29296 -1.875,-0.63281 -0.59375,-0.34375 -1.09375,-0.79297 -1.484375,-1.30469 z m 0,0" fill-opacity="1" fill-rule="evenodd" id="path26"></path><path fill="#085c9c" d="m 80.786334,80.222248 v 17.17969 c 0.507813,0.0781 1.011719,0.25 1.484375,0.52343 0.511719,0.29688 0.941406,0.67969 1.273438,1.125 2.59375,-1.41015 5.203125,-2.875 7.828125,-4.38672 l 0.03906,-0.0195 c 2.609375,-1.50781 5.171875,-3.02734 7.679688,-4.55468 -0.425781,-1 -0.464844,-2.15625 -0.04687,-3.21094 l -14.898438,-8.58985 c -0.835937,1.09375 -2.058594,1.76563 -3.359375,1.9336 z m 0,0" fill-opacity="1" fill-rule="evenodd" id="path27"></path><path fill="#077aba" d="m 84.790241,77.175368 14.894531,8.58985 c 0.710938,-0.89063 1.730468,-1.4336 2.812498,-1.56641 0.0703,-2.94922 0.10937,-5.9375 0.10547,-8.96094 0,-3.02343 -0.0352,-6.01172 -0.10547,-8.96484 -0.55469,-0.0664 -1.10156,-0.24219 -1.61328,-0.53906 -0.47266,-0.26953 -0.875,-0.6211 -1.199218,-1.02344 l -14.894531,8.58984 c 0.503906,1.210939 0.53125,2.60547 0,3.875 z m 0,0" fill-opacity="1" fill-rule="evenodd" id="path28"></path><g clip-path="url(#59949fe525)" id="g29" transform="translate(0.51680323,-72.320722)"><path fill="#8ad7f8" d="m 83.058594,118.66406 c 4.839844,-2.49218 9.589844,-4.79687 14.214844,-6.89843 -0.261719,-0.71875 -0.296876,-1.48829 -0.07031,-2.19922 -4.835937,-2.66797 -9.667969,-5.08203 -14.460937,-7.23438 -0.585938,0.71094 -1.464844,1.21485 -2.472657,1.36719 v 13.27734 c 0.507813,0.0781 1.011719,0.2461 1.484375,0.51953 0.527344,0.30469 0.96875,0.70704 1.304688,1.16797 z m 0,0" fill-opacity="1" fill-rule="evenodd" id="path29"></path></g><g clip-path="url(#33ba226676)" id="g30" transform="translate(0.51680323,-72.320722)"><path fill="#8ad7f8" d="m 78.980469,116.97656 v -13.27734 c -1.011719,-0.15234 -1.890625,-0.65625 -2.476563,-1.36719 -4.789062,2.15235 -9.625,4.5625 -14.457031,7.23047 0.226563,0.71484 0.191406,1.48438 -0.07031,2.19922 4.621094,2.10547 9.375,4.41016 14.214844,6.89844 0.683594,-0.9336 1.699219,-1.51563 2.789063,-1.6836 z m 0,0" fill-opacity="1" fill-rule="evenodd" id="path30"></path></g><path fill="#34abe2" d="m 76.106647,47.483968 c -4.851563,-2.5 -9.621094,-4.8086 -14.253906,-6.91797 -0.3125,0.39062 -0.710938,0.73437 -1.179688,1 -0.464844,0.27344 -0.960938,0.44141 -1.457031,0.51953 -0.488281,5.0625 -0.871094,10.33984 -1.128907,15.78516 0.449219,0.0898 0.894532,0.25 1.3125,0.49218 0.433594,0.25 0.808594,0.56641 1.113282,0.92969 2.53125,-1.54687 5.117187,-3.07812 7.753906,-4.59765 2.632812,-1.51954 5.253906,-2.98438 7.859375,-4.40625 -0.316406,-0.89063 -0.335937,-1.87891 -0.01953,-2.80469 z m 0,0" fill-opacity="1" fill-rule="evenodd" id="path31"></path><path fill="#34abe2" d="m 56.801959,57.819898 c 0.257813,-5.42968 0.636719,-10.6914 1.121094,-15.74218 -0.75,-0.13281 -1.4375,-0.48828 -1.945312,-1.04297 -4.726563,2.83984 -9.234376,5.81641 -13.5,8.88672 0.324218,0.86328 0.324218,1.8789 -0.05078,2.83203 l 11.511719,6.63672 c 0.722656,-0.90235 1.761719,-1.44922 2.863281,-1.57032 z m 0,0" fill-opacity="1" fill-rule="evenodd" id="path32"></path><g clip-path="url(#01695772a0)" id="g33" transform="translate(0.51680323,-72.320722)"><path fill="#1190cf" d="m 52.78125,132.82422 -11.515625,-6.64063 c -0.636719,0.80079 -1.511719,1.3086 -2.425781,1.45704 -0.527344,5.22265 -0.851563,10.60937 -0.957032,16.12109 0.734376,0.16015 1.386719,0.57812 1.875,1.16015 4.136719,-2.94531 8.511719,-5.90234 13.089844,-8.83984 -0.441406,-1.01172 -0.488281,-2.18359 -0.06641,-3.25781 z m 0,0" fill-opacity="1" fill-rule="evenodd" id="path33"></path></g><path fill="#077aba" d="m 54.055865,64.847248 c -4.597656,2.94922 -8.980468,5.91406 -13.125,8.86719 0.179688,0.46875 0.277344,0.98437 0.277344,1.51953 0,0.54297 -0.09766,1.05468 -0.277344,1.52343 4.144532,2.95313 8.53125,5.91797 13.125,8.86719 0.644532,-0.73828 1.511719,-1.21484 2.441407,-1.38672 -0.07031,-2.96093 -0.105469,-5.96484 -0.105469,-9 0,-3.03906 0.03516,-6.03906 0.105469,-9 -0.464844,-0.0859 -0.925781,-0.2539 -1.359375,-0.5039 -0.421875,-0.23828 -0.78125,-0.54297 -1.082032,-0.88672 z m 0,0" fill-opacity="1" fill-rule="evenodd" id="path34"></path><g clip-path="url(#042242110a)" id="g35" transform="translate(0.51680323,-72.320722)"><path fill="#085c9c" d="m 52.847656,159.03516 c -4.578125,-2.9375 -8.953125,-5.89844 -13.089844,-8.84375 -0.488281,0.58593 -1.140624,1 -1.875,1.16015 0.105469,5.51563 0.429688,10.90235 0.960938,16.1211 0.90625,0.14843 1.785156,0.65625 2.421875,1.45703 l 11.515625,-6.64063 c -0.402344,-1.02344 -0.402344,-2.1914 0.06641,-3.2539 z m 0,0" fill-opacity="1" fill-rule="evenodd" id="path35"></path></g><path fill="#2e365e" d="m 53.938678,91.085528 -11.511719,6.63672 c 0.375,0.94922 0.375,1.96094 0.05078,2.824222 4.265624,3.0664 8.773437,6.04297 13.503906,8.88672 0.503906,-0.55079 1.191406,-0.90625 1.941406,-1.03907 -0.484375,-5.04687 -0.863281,-10.308592 -1.121094,-15.738282 -0.570312,-0.0625 -1.136718,-0.24219 -1.664062,-0.54687 -0.476563,-0.27344 -0.875,-0.6211 -1.199219,-1.02344 z m 0,0" fill-opacity="1" fill-rule="evenodd" id="path36"></path><path fill="#2e365e" d="m 58.087115,92.601148 c 0.257813,5.44532 0.640626,10.726572 1.128907,15.785162 0.496093,0.0781 0.992187,0.25 1.457031,0.51953 0.46875,0.26953 0.867188,0.61328 1.179688,1.00391 4.636718,-2.10938 9.402343,-4.41797 14.257812,-6.91797 -0.308594,-0.89453 -0.316406,-1.88281 0.01563,-2.80469 -2.605469,-1.421872 -5.226563,-2.890622 -7.863281,-4.410152 -2.632813,-1.51563 -5.21875,-3.05079 -7.75,-4.59375 -0.636719,0.75 -1.5,1.23437 -2.425782,1.41796 z m 0,0" fill-opacity="1" fill-rule="evenodd" id="path37"></path><g clip-path="url(#d0b52cf48e)" id="g38" transform="translate(0.51680323,-72.320722)"><path fill="#0c0a28" d="m 76.1875,176.45312 c -4.835938,2.48829 -9.589844,4.79297 -14.210938,6.89844 0.261719,0.71485 0.296876,1.48438 0.07031,2.19922 4.832031,2.66797 9.667969,5.07813 14.460937,7.23047 0.582032,-0.71094 1.460938,-1.21484 2.472657,-1.36719 v -13.27344 c -0.511719,-0.0781 -1.015625,-0.25 -1.488281,-0.52343 -0.527344,-0.30469 -0.964844,-0.70313 -1.304688,-1.16407 z m 0,0" fill-opacity="1" fill-rule="evenodd" id="path38"></path></g><g clip-path="url(#a6f79b2eda)" id="g39" transform="translate(0.51680323,-72.320722)"><path fill="#0c0a28" d="m 80.269531,178.14062 v 13.27344 c 1.007813,0.15235 1.890625,0.65625 2.472657,1.3711 4.792968,-2.15235 9.628906,-4.56641 14.460937,-7.23438 -0.226563,-0.71484 -0.191406,-1.48437 0.07031,-2.19922 -4.625,-2.10547 -9.375,-4.40625 -14.214844,-6.89844 -0.6875,0.9336 -1.703125,1.51954 -2.789063,1.6875 z m 0,0" fill-opacity="1" fill-rule="evenodd" id="path39"></path></g><path fill="#2e365e" d="m 84.173053,102.98787 c 4.855469,2.5 9.621094,4.8125 14.253906,6.91797 0.316406,-0.38672 0.710938,-0.73047 1.179688,-1 0.468753,-0.26953 0.964843,-0.4414 1.460933,-0.51953 0.48828,-5.05859 0.86719,-10.335942 1.12891,-15.785162 -0.44922,-0.0859 -0.89453,-0.25 -1.3125,-0.49218 -0.4375,-0.25 -0.80859,-0.566411 -1.117187,-0.92578 -2.53125,1.542959 -5.117188,3.074209 -7.753906,4.59375 l -0.03125,0.0195 c -2.621094,1.51172 -5.234375,2.976561 -7.824219,4.386723 0.316406,0.89062 0.335937,1.8789 0.01563,2.80468 z m 0,0" fill-opacity="1" fill-rule="evenodd" id="path40"></path><path fill="#2e365e" d="m 103.48164,92.655838 c -0.25781,5.42969 -0.63671,10.691412 -1.125,15.738282 0.75391,0.13282 1.44141,0.48828 1.94532,1.04297 4.73047,-2.84765 9.23828,-5.82031 13.5039,-8.89062 -0.32812,-0.859382 -0.32422,-1.875002 0.0469,-2.824222 l -11.51172,-6.63672 c -0.71875,0.89844 -1.76172,1.44531 -2.85938,1.57031 z m 0,0" fill-opacity="1" fill-rule="evenodd" id="path41"></path><g clip-path="url(#b2a67992cd)" id="g42" transform="translate(0.51680323,-72.320722)"><path fill="#085c9c" d="m 106.46875,162.29297 11.51172,6.63672 c 0.63672,-0.80078 1.51562,-1.3086 2.42578,-1.45703 0.53125,-5.21875 0.85547,-10.60547 0.95703,-16.1211 -0.73437,-0.16015 -1.38281,-0.57422 -1.875,-1.16015 -4.13672,2.94531 -8.50781,5.90234 -13.08984,8.84375 0.44531,1.01171 0.49219,2.18359 0.0703,3.25781 z m 0,0" fill-opacity="1" fill-rule="evenodd" id="path42"></path></g><path fill="#077aba" d="m 106.22774,85.628498 c 4.59375,-2.94922 8.98047,-5.91797 13.125,-8.8711 -0.17969,-0.46484 -0.28125,-0.98046 -0.28125,-1.51953 0,-0.53906 0.10156,-1.05468 0.28125,-1.51953 -4.14453,-2.95312 -8.53125,-5.92187 -13.125,-8.87109 -0.64453,0.73828 -1.51563,1.21484 -2.44141,1.38672 0.0703,2.96484 0.10547,5.96484 0.10547,9.0039 0,3.03516 -0.0391,6.03907 -0.10937,9 0.46875,0.0859 0.92968,0.25 1.36328,0.5 0.41797,0.24219 0.78125,0.54297 1.08203,0.89063 z m 0,0" fill-opacity="1" fill-rule="evenodd" id="path43"></path><g clip-path="url(#683ae996b1)" id="g44" transform="translate(0.51680323,-72.320722)"><path fill="#1190cf" d="m 106.40234,136.07812 c 4.57813,2.94141 8.95313,5.89844 13.08985,8.84375 0.48828,-0.58203 1.13672,-1 1.87109,-1.16015 -0.10156,-5.51172 -0.42969,-10.89844 -0.95703,-16.12109 -0.91016,-0.14844 -1.78906,-0.65625 -2.42578,-1.45704 l -11.51172,6.64063 c 0.39844,1.02344 0.39844,2.19531 -0.0664,3.2539 z m 0,0" fill-opacity="1" fill-rule="evenodd" id="path44"></path></g><g clip-path="url(#41f2b8a5d7)" id="g45" transform="translate(0.51680323,-72.320722)"><path fill="#34abe2" d="m 112.80859,115.96484 8.55469,-4.92968 c -0.27734,-0.70703 -0.27734,-1.46094 -0.0391,-2.09766 -3.16797,-2.28125 -6.51563,-4.49219 -10.03125,-6.60547 -0.375,0.41016 -0.88281,0.67578 -1.44141,0.77344 0.35938,3.75 0.64063,7.66016 0.83594,11.69531 0.42188,0.043 0.83984,0.17578 1.23438,0.40235 0.35156,0.20312 0.64843,0.46484 0.88671,0.76171 z m 0,0" fill-opacity="1" fill-rule="evenodd" id="path45"></path></g><path fill="#34abe2" d="m 93.637897,46.327718 c 4.289062,-2.20703 8.503903,-4.25 12.597653,-6.10938 0.27734,0.34375 0.62891,0.64453 1.03906,0.88282 0.41407,0.23828 0.85547,0.39062 1.28907,0.45703 0.43359,4.47265 0.76953,9.13672 1,13.95312 -0.39844,0.0742 -0.78907,0.21875 -1.16016,0.43359 -0.38281,0.21875 -0.71484,0.5 -0.98438,0.81641 -2.23828,-1.36328 -4.52343,-2.71484 -6.85156,-4.05859 -2.324215,-1.33985 -4.644527,-2.64063 -6.945308,-3.89453 0.28125,-0.78516 0.296875,-1.66016 0.01563,-2.48047 z m 0,0" fill-opacity="1" fill-rule="evenodd" id="path46"></path><g clip-path="url(#4d337690ed)" id="g49" transform="translate(0.51680323,-72.320722)"><g clip-path="url(#acff5831cd)" id="g48"><g clip-path="url(#b8b22b874e)" id="g47"><path fill="#de2a33" d="M 37.597656,149.30859 37.5,145.94531 c 0,-0.0469 0.02344,-0.0742 0.07422,-0.0742 0.230469,-0.008 0.457031,0.0312 0.675781,0.11328 0.214844,0.0859 0.410156,0.20704 0.578125,0.36719 0.167969,0.16016 0.300781,0.34375 0.394531,0.5586 0.09766,0.21093 0.148438,0.43359 0.15625,0.66796 0.0039,0.23047 -0.03516,0.45704 -0.117187,0.67188 -0.08203,0.21875 -0.203125,0.41406 -0.363281,0.58203 -0.160157,0.16797 -0.347657,0.30078 -0.558594,0.39453 -0.210938,0.0977 -0.433594,0.14844 -0.667969,0.15235 -0.04687,0.004 -0.07422,-0.0195 -0.07422,-0.0703 z m 0,0" fill-opacity="1" fill-rule="nonzero" id="path47" style="fill:#d0174a;fill-opacity:1"></path></g></g></g><g clip-path="url(#bd960625d8)" id="g51" transform="translate(0.51680323,-72.320722)"><g clip-path="url(#ec7e253fbc)" id="g50"><path fill="#de2a33" d="m 76.703125,171.04297 h 5.808594 v 5.80859 h -5.808594 z m 0,0" fill-opacity="1" fill-rule="nonzero" id="path49" style="fill:#d0174a;fill-opacity:1"></path></g></g><g clip-path="url(#8519918df6)" id="g53" transform="translate(0.51680323,-72.320722)"><g clip-path="url(#42ec73a2d9)" id="g52"><path fill="#de2a33" d="m 53.710938,157.74219 h 5.972656 v 5.97265 h -5.972656 z m 0,0" fill-opacity="1" fill-rule="nonzero" id="path51" style="fill:#d0174a;fill-opacity:1"></path></g></g><g clip-path="url(#72dd021a82)" id="g56" transform="translate(0.51680323,-72.320722)"><g clip-path="url(#960da92e1e)" id="g55"><g clip-path="url(#c2f1fe8fb8)" id="g54"><path fill="#de2a33" d="m 102.44922,182.83594 -3.425782,2.21875 c -0.05078,0.0312 -0.09375,0.0234 -0.125,-0.0273 -0.152344,-0.23828 -0.253907,-0.49609 -0.308594,-0.77343 -0.05078,-0.27735 -0.04687,-0.55469 0.01563,-0.83204 0.05859,-0.27343 0.167969,-0.52734 0.328125,-0.76171 0.160156,-0.23047 0.359375,-0.42579 0.59375,-0.57813 0.238281,-0.15625 0.496091,-0.25781 0.773441,-0.30859 0.27735,-0.0508 0.55469,-0.0469 0.83203,0.0117 0.27735,0.0586 0.53125,0.16796 0.76172,0.32812 0.23438,0.16016 0.42578,0.35938 0.58203,0.59766 0.0312,0.0508 0.0234,0.0898 -0.0273,0.125 z m 0,0" fill-opacity="1" fill-rule="nonzero" id="path53" style="fill:#d0174a;fill-opacity:1"></path></g></g></g><g fill="#000000" fill-opacity="1" id="g59" transform="translate(0.51680323,-72.320722)" style="fill:#077aba;fill-opacity:1"><g transform="translate(136.03671,163.56291)" id="g58" style="fill:#077aba;fill-opacity:1"><g id="g57" style="fill:#077aba;fill-opacity:1"><path d="m 21.765625,-8.125 c 0,1.605469 0.01563,3.0625 0.04687,4.375 0.03125,1.304688 0.171875,2.585938 0.421875,3.84375 H 19.6875 L 18.75,-3.265625 h -0.1875 c -0.636719,1.105469 -1.554688,2.023437 -2.75,2.75 C 14.625,0.203125 13.222656,0.5625 11.609375,0.5625 8.460938,0.5625 6.125,-0.425781 4.59375,-2.40625 3.070312,-4.394531 2.3125,-7.492188 2.3125,-11.703125 c 0,-4.03125 0.953125,-7.09375 2.859375,-9.1875 1.90625,-2.09375 4.523437,-3.140625 7.859375,-3.140625 1.164062,0 2.085938,0.0625 2.765625,0.1875 0.675781,0.125 1.40625,0.328125 2.1875,0.609375 v -9.8125 h 3.78125 z m -9.53125,5.390625 c 1.601563,0 2.875,-0.414063 3.8125,-1.25 0.945313,-0.832031 1.59375,-2.101563 1.9375,-3.8125 V -19.5 c -0.5625,-0.4375 -1.210937,-0.75 -1.9375,-0.9375 -0.71875,-0.195312 -1.679687,-0.296875 -2.875,-0.296875 -2.167969,0 -3.867187,0.71875 -5.09375,2.15625 -1.230469,1.429687 -1.84375,3.71875 -1.84375,6.875 0,1.28125 0.097656,2.476563 0.296875,3.578125 0.207031,1.105469 0.546875,2.054688 1.015625,2.84375 0.476563,0.78125 1.101563,1.402344 1.875,1.859375 0.769531,0.460937 1.707031,0.6875 2.8125,0.6875 z m 0,0" id="path56" style="fill:#077aba;fill-opacity:1"></path></g></g></g><g fill="#000000" fill-opacity="1" id="g62" transform="translate(0.51680323,-72.320722)" style="fill:#077aba;fill-opacity:1"><g transform="translate(165.73515,163.56291)" id="g61" style="fill:#077aba;fill-opacity:1"><g id="g60" style="fill:#077aba;fill-opacity:1"><path d="m 3.265625,-21.859375 c 1.1875,-0.726563 2.578125,-1.265625 4.171875,-1.609375 1.59375,-0.34375 3.253906,-0.515625 4.984375,-0.515625 1.632813,0 2.945313,0.21875 3.9375,0.65625 0.988281,0.4375 1.742187,1.011719 2.265625,1.71875 0.519531,0.710937 0.863281,1.492187 1.03125,2.34375 0.175781,0.855469 0.265625,1.703125 0.265625,2.546875 0,1.898438 -0.04687,3.742188 -0.140625,5.53125 -0.09375,1.792969 -0.140625,3.492188 -0.140625,5.09375 0,1.167969 0.04687,2.273438 0.140625,3.3125 0.09375,1.03125 0.265625,1.992188 0.515625,2.875 h -2.78125 L 16.53125,-3.203125 h -0.234375 c -0.292969,0.4375 -0.652344,0.871094 -1.078125,1.296875 -0.417969,0.417969 -0.929688,0.792969 -1.53125,1.125 -0.59375,0.335938 -1.289062,0.609375 -2.078125,0.828125 C 10.828125,0.265625 9.929688,0.375 8.921875,0.375 7.910156,0.375 6.972656,0.21875 6.109375,-0.09375 5.242188,-0.40625 4.492188,-0.851562 3.859375,-1.4375 3.234375,-2.019531 2.738281,-2.71875 2.375,-3.53125 2.019531,-4.351562 1.84375,-5.285156 1.84375,-6.328125 c 0,-1.382813 0.28125,-2.539063 0.84375,-3.46875 0.570312,-0.925781 1.367188,-1.664063 2.390625,-2.21875 1.019531,-0.550781 2.242187,-0.941406 3.671875,-1.171875 1.4375,-0.238281 3.019531,-0.359375 4.75,-0.359375 0.445312,0 0.878906,0 1.296875,0 0.425781,0 0.863281,0.03125 1.3125,0.09375 C 16.203125,-14.398438 16.25,-15.25 16.25,-16 c 0,-1.738281 -0.351562,-2.953125 -1.046875,-3.640625 -0.6875,-0.695313 -1.949219,-1.046875 -3.78125,-1.046875 -0.53125,0 -1.105469,0.04297 -1.71875,0.125 -0.617187,0.07422 -1.246094,0.183594 -1.890625,0.328125 -0.648438,0.148437 -1.261719,0.324219 -1.84375,0.53125 -0.585938,0.199219 -1.09375,0.421875 -1.53125,0.671875 z m 6.703125,18.9375 c 0.875,0 1.65625,-0.117187 2.34375,-0.359375 0.695312,-0.238281 1.296875,-0.535156 1.796875,-0.890625 0.507813,-0.363281 0.925781,-0.765625 1.25,-1.203125 0.332031,-0.445312 0.582031,-0.875 0.75,-1.28125 v -3.921875 c -0.449219,-0.03125 -0.902344,-0.05078 -1.359375,-0.0625 -0.449219,-0.01953 -0.898438,-0.03125 -1.34375,-0.03125 -0.96875,0 -1.921875,0.05859 -2.859375,0.171875 -0.929687,0.105469 -1.746094,0.308594 -2.453125,0.609375 -0.710938,0.304687 -1.277344,0.714844 -1.703125,1.234375 -0.417969,0.511719 -0.625,1.164062 -0.625,1.953125 0,1.105469 0.390625,2.011719 1.171875,2.71875 0.789062,0.710937 1.800781,1.0625 3.03125,1.0625 z m 0,0" id="path59" style="fill:#077aba;fill-opacity:1"></path></g></g></g><g fill="#000000" fill-opacity="1" id="g65" transform="translate(0.51680323,-72.320722)" style="fill:#077aba;fill-opacity:1"><g transform="translate(193.4506,163.56291)" id="g64" style="fill:#077aba;fill-opacity:1"><g id="g63" style="fill:#077aba;fill-opacity:1"><path d="m 0.515625,-23.609375 h 3.6875 v -4.671875 l 3.78125,-1.09375 v 5.765625 h 6.421875 v 3.3125 H 7.984375 V -7.21875 c 0,1.636719 0.203125,2.792969 0.609375,3.46875 0.40625,0.679688 1.097656,1.015625 2.078125,1.015625 0.820313,0 1.515625,-0.085937 2.078125,-0.265625 0.5625,-0.175781 1.191406,-0.40625 1.890625,-0.6875 l 0.84375,2.890625 c -0.84375,0.40625 -1.773437,0.734375 -2.78125,0.984375 -1.011719,0.25 -2.101563,0.375 -3.265625,0.375 -1.917969,0 -3.273438,-0.5429688 -4.0625,-1.625 C 4.59375,-2.144531 4.203125,-3.960938 4.203125,-6.515625 v -13.78125 h -3.6875 z m 0,0" id="path62" style="fill:#077aba;fill-opacity:1"></path></g></g></g><g fill="#000000" fill-opacity="1" id="g68" transform="translate(0.51680323,-72.320722)" style="fill:#077aba;fill-opacity:1"><g transform="translate(213.75341,163.56291)" id="g67" style="fill:#077aba;fill-opacity:1"><g id="g66" style="fill:#077aba;fill-opacity:1"><path d="m 14.78125,-19.96875 c -0.949219,-0.320312 -1.84375,-0.484375 -2.6875,-0.484375 -1.355469,0 -2.429688,0.375 -3.21875,1.125 -0.78125,0.742187 -1.273438,1.671875 -1.46875,2.796875 V 0 H 3.640625 V -23.609375 H 6.28125 l 0.703125,2.875 h 0.1875 c 0.601563,-1.0625 1.320313,-1.882813 2.15625,-2.46875 0.832031,-0.582031 1.894531,-0.875 3.1875,-0.875 0.90625,0 1.925781,0.15625 3.0625,0.46875 z m 0,0" id="path65" style="fill:#077aba;fill-opacity:1"></path></g></g></g><g fill="#000000" fill-opacity="1" id="g71" transform="translate(0.51680323,-72.320722)" style="fill:#077aba;fill-opacity:1"><g transform="translate(234.10344,163.56291)" id="g70" style="fill:#077aba;fill-opacity:1"><g id="g69" style="fill:#077aba;fill-opacity:1"><path d="m 10.578125,-8.3125 1.328125,4.53125 h 0.234375 l 1.03125,-4.578125 4.578125,-15.25 h 3.828125 L 14.59375,-2.40625 C 14.050781,-0.863281 13.519531,0.628906 13,2.078125 c -0.511719,1.445313 -1.085938,2.738281 -1.71875,3.875 -0.625,1.132813 -1.335938,2.039063 -2.125,2.71875 C 8.375,9.347656 7.460938,9.6875 6.421875,9.6875 c -1.136719,0 -2.0625,-0.164062 -2.78125,-0.484375 l 0.65625,-3.25 c 0.40625,0.15625 0.800781,0.234375 1.1875,0.234375 0.875,0 1.71875,-0.464844 2.53125,-1.390625 C 8.835938,3.867188 9.519531,2.269531 10.0625,0 l -9.5,-23.609375 h 4.34375 z m 0,0" id="path68" style="fill:#077aba;fill-opacity:1"></path></g></g></g><g fill="#000000" fill-opacity="1" id="g74" transform="translate(0.51680323,-72.320722)" style="fill:#077aba;fill-opacity:1"><g transform="translate(260.40245,163.56291)" id="g73" style="fill:#077aba;fill-opacity:1"><g id="g72" style="fill:#077aba;fill-opacity:1"><path d="m 7.84375,-5.8125 c 0,1.105469 0.1875,1.898438 0.5625,2.375 0.375,0.46875 0.910156,0.703125 1.609375,0.703125 0.40625,0 0.84375,-0.03125 1.3125,-0.09375 0.476563,-0.0625 1.015625,-0.207031 1.609375,-0.4375 l 0.421875,2.984375 c -0.5,0.25 -1.199219,0.453125 -2.09375,0.609375 -0.898437,0.15625 -1.679687,0.234375 -2.34375,0.234375 -1.417969,0 -2.585937,-0.402344 -3.5,-1.203125 C 4.515625,-1.441406 4.0625,-2.800781 4.0625,-4.71875 v -28.328125 h 3.78125 z m 0,0" id="path71" style="fill:#077aba;fill-opacity:1"></path></g></g></g><g fill="#000000" fill-opacity="1" id="g77" transform="translate(0.51680323,-72.320722)" style="fill:#077aba;fill-opacity:1"><g transform="translate(278.48618,163.56291)" id="g76" style="fill:#077aba;fill-opacity:1"><g id="g75" style="fill:#077aba;fill-opacity:1"><path d="m 7.84375,-5.8125 c 0,1.105469 0.1875,1.898438 0.5625,2.375 0.375,0.46875 0.910156,0.703125 1.609375,0.703125 0.40625,0 0.84375,-0.03125 1.3125,-0.09375 0.476563,-0.0625 1.015625,-0.207031 1.609375,-0.4375 l 0.421875,2.984375 c -0.5,0.25 -1.199219,0.453125 -2.09375,0.609375 -0.898437,0.15625 -1.679687,0.234375 -2.34375,0.234375 -1.417969,0 -2.585937,-0.402344 -3.5,-1.203125 C 4.515625,-1.441406 4.0625,-2.800781 4.0625,-4.71875 v -28.328125 h 3.78125 z m 0,0" id="path74" style="fill:#077aba;fill-opacity:1"></path></g></g></g><g fill="#000000" fill-opacity="1" id="g80" transform="translate(0.51680323,-72.320722)" style="fill:#077aba;fill-opacity:1"><g transform="translate(296.5699,163.56291)" id="g79" style="fill:#077aba;fill-opacity:1"><g id="g78" style="fill:#077aba;fill-opacity:1"><path d="M 4.4375,-23.609375 H 8.21875 V 0 H 4.4375 Z M 3.640625,-30.78125 c 0,-0.726562 0.238281,-1.351562 0.71875,-1.875 0.488281,-0.519531 1.113281,-0.78125 1.875,-0.78125 0.75,0 1.390625,0.261719 1.921875,0.78125 0.539062,0.523438 0.8125,1.148438 0.8125,1.875 0,0.71875 -0.273438,1.320312 -0.8125,1.796875 -0.53125,0.46875 -1.171875,0.703125 -1.921875,0.703125 -0.761719,0 -1.386719,-0.234375 -1.875,-0.703125 -0.480469,-0.476563 -0.71875,-1.078125 -0.71875,-1.796875 z m 0,0" id="path77" style="fill:#077aba;fill-opacity:1"></path><path style="opacity:0.98;fill:#077aba;fill-opacity:1;stroke:none;stroke-width:5.00315" id="path48" sodipodi:type="arc" sodipodi:cx="-2.3099208" sodipodi:cy="-36.376968" sodipodi:rx="0.25541419" sodipodi:ry="2.5760117" sodipodi:start="0" sodipodi:end="0.013102266" sodipodi:arc-type="slice" d="m -2.0545066,-36.376968 a 0.25541419,2.5760117 0 0 1 -2.19e-5,0.03375 l -0.2553923,-0.03375 z"></path></g></g></g><g fill="#000000" fill-opacity="1" id="g83" transform="translate(0.51680323,-72.320722)" style="fill:#077aba;fill-opacity:1"><g transform="translate(313.52049,163.56291)" id="g82" style="fill:#077aba;fill-opacity:1"><g id="g81" style="fill:#077aba;fill-opacity:1"><path d="m 19.734375,-1.5625 c -0.9375,0.699219 -2.054687,1.226562 -3.34375,1.578125 -1.292969,0.363281 -2.648437,0.546875 -4.0625,0.546875 -1.835937,0 -3.382813,-0.292969 -4.640625,-0.875 -1.25,-0.582031 -2.277344,-1.414062 -3.078125,-2.5 -0.804687,-1.082031 -1.386719,-2.382812 -1.75,-3.90625 C 2.492188,-8.25 2.3125,-9.945312 2.3125,-11.8125 c 0,-3.988281 0.878906,-7.046875 2.640625,-9.171875 1.769531,-2.125 4.304687,-3.1875 7.609375,-3.1875 1.507812,0 2.789062,0.121094 3.84375,0.359375 1.050781,0.230469 2.003906,0.5625 2.859375,1 l -1.09375,3.265625 c -0.71875,-0.40625 -1.523437,-0.726563 -2.40625,-0.96875 -0.875,-0.238281 -1.820313,-0.359375 -2.828125,-0.359375 -4.46875,0 -6.703125,3.023438 -6.703125,9.0625 0,1.199219 0.113281,2.34375 0.34375,3.4375 0.238281,1.085938 0.632813,2.042969 1.1875,2.875 0.550781,0.835938 1.273437,1.507812 2.171875,2.015625 0.894531,0.5 2.003906,0.75 3.328125,0.75 1.132813,0 2.148437,-0.171875 3.046875,-0.515625 0.894531,-0.351562 1.628906,-0.75 2.203125,-1.1875 z m 0,0" id="path80" style="fill:#077aba;fill-opacity:1"></path></g></g></g><circle style="opacity:0.98;fill:#d0174a;fill-opacity:1;stroke:none;stroke-width:5.35872" id="path50" cx="303.39139" cy="60.414337" r="2.654134"></circle></svg>